
> dungeons-on-automatic@0.1.0 doa /home/knorton/DungeonsOnAutomatic/DungeonsOnAutomatic
> tsx src/cli/index.ts generate --rooms=2 --system=dfrpg --room-shape=hexagonal --layout-type=rectangle --svg

DFRPG: Generated 6 wandering monster entries
DFRPG: Generated dungeon "The Unholy Vaults of the Damned" with mana: very_high, sanctity: blessed, nature: dead
DFRPG: Generated 1 locks for doors
DFRPG: Created 1 keys
DFRPG: Placed keys in rooms
DFRPG: Successfully fixed dungeon solvability with key relocation
<svg xmlns="http://www.w3.org/2000/svg" width="1220" height="1040" viewBox="0 0 1220 1040"><rect x="0" y="0" width="1220" height="1040" fill="#ffffff"/><rect x="460" y="960" width="20" height="20" fill="#cccccc" stroke="none"/><rect x="460" y="940" width="20" height="20" fill="#cccccc" stroke="none"/><rect x="460" y="920" width="20" height="20" fill="#cccccc" stroke="none"/><rect x="460" y="900" width="20" height="20" fill="#cccccc" stroke="none"/><rect x="460" y="880" width="20" height="20" fill="#cccccc" stroke="none"/><rect x="460" y="860" width="20" height="20" fill="#cccccc" stroke="none"/><rect x="460" y="840" width="20" height="20" fill="#cccccc" stroke="none"/><rect x="460" y="820" width="20" height="20" fill="#cccccc" stroke="none"/><rect x="460" y="800" width="20" height="20" fill="#cccccc" stroke="none"/><rect x="460" y="780" width="20" height="20" fill="#cccccc" stroke="none"/><rect x="460" y="760" width="20" height="20" fill="#cccccc" stroke="none"/><rect x="460" y="740" width="20" height="20" fill="#cccccc" stroke="none"/><rect x="460" y="720" width="20" height="20" fill="#cccccc" stroke="none"/><rect x="460" y="700" width="20" height="20" fill="#cccccc" stroke="none"/><rect x="460" y="680" width="20" height="20" fill="#cccccc" stroke="none"/><rect x="460" y="660" width="20" height="20" fill="#cccccc" stroke="none"/><rect x="460" y="640" width="20" height="20" fill="#cccccc" stroke="none"/><rect x="460" y="620" width="20" height="20" fill="#cccccc" stroke="none"/><rect x="460" y="600" width="20" height="20" fill="#cccccc" stroke="none"/><rect x="460" y="580" width="20" height="20" fill="#cccccc" stroke="none"/><rect x="460" y="560" width="20" height="20" fill="#cccccc" stroke="none"/><rect x="460" y="540" width="20" height="20" fill="#cccccc" stroke="none"/><rect x="460" y="520" width="20" height="20" fill="#cccccc" stroke="none"/><rect x="460" y="500" width="20" height="20" fill="#cccccc" stroke="none"/><rect x="480" y="500" width="20" height="20" fill="#cccccc" stroke="none"/><rect x="500" y="500" width="20" height="20" fill="#cccccc" stroke="none"/><rect x="520" y="500" width="20" height="20" fill="#cccccc" stroke="none"/><rect x="540" y="500" width="20" height="20" fill="#cccccc" stroke="none"/><rect x="560" y="500" width="20" height="20" fill="#cccccc" stroke="none"/><rect x="580" y="500" width="20" height="20" fill="#cccccc" stroke="none"/><rect x="600" y="500" width="20" height="20" fill="#cccccc" stroke="none"/><rect x="620" y="500" width="20" height="20" fill="#cccccc" stroke="none"/><rect x="640" y="500" width="20" height="20" fill="#cccccc" stroke="none"/><rect x="660" y="500" width="20" height="20" fill="#cccccc" stroke="none"/><rect x="680" y="500" width="20" height="20" fill="#cccccc" stroke="none"/><rect x="700" y="500" width="20" height="20" fill="#cccccc" stroke="none"/><rect x="720" y="500" width="20" height="20" fill="#cccccc" stroke="none"/><rect x="740" y="500" width="20" height="20" fill="#cccccc" stroke="none"/><rect x="760" y="500" width="20" height="20" fill="#cccccc" stroke="none"/><rect x="780" y="500" width="20" height="20" fill="#cccccc" stroke="none"/><rect x="800" y="500" width="20" height="20" fill="#cccccc" stroke="none"/><rect x="820" y="500" width="20" height="20" fill="#cccccc" stroke="none"/><rect x="840" y="500" width="20" height="20" fill="#cccccc" stroke="none"/><rect x="860" y="500" width="20" height="20" fill="#cccccc" stroke="none"/><rect x="880" y="500" width="20" height="20" fill="#cccccc" stroke="none"/><rect x="900" y="500" width="20" height="20" fill="#cccccc" stroke="none"/><rect x="920" y="500" width="20" height="20" fill="#cccccc" stroke="none"/><rect x="940" y="500" width="20" height="20" fill="#cccccc" stroke="none"/><rect x="960" y="500" width="20" height="20" fill="#cccccc" stroke="none"/><rect x="980" y="500" width="20" height="20" fill="#cccccc" stroke="none"/><rect x="1000" y="500" width="20" height="20" fill="#cccccc" stroke="none"/><rect x="1020" y="500" width="20" height="20" fill="#cccccc" stroke="none"/><rect x="1040" y="500" width="20" height="20" fill="#cccccc" stroke="none"/><rect x="1060" y="500" width="20" height="20" fill="#cccccc" stroke="none"/><rect x="1080" y="500" width="20" height="20" fill="#cccccc" stroke="none"/><line x1="466.6564023547028" y1="964.4376015698019" x2="453.3435976452972" y2="955.5623984301981" stroke="#000000" stroke-width="4"/><line x1="1073.3435976452972" y1="504.4376015698018" x2="1086.6564023547028" y2="495.5623984301982" stroke="#000000" stroke-width="4"/><polygon points="460,960 420,1020 340,1020 300,960 340,900 420,900" fill="#ffffff" stroke="#000000"/><text x="380" y="960" text-anchor="middle" dominant-baseline="middle" font-size="12" fill="#000000">1</text><polygon points="1200,500 1180,560 1120,560 1080,500 1120,440 1180,440" fill="#ffffff" stroke="#000000"/><text x="1140" y="500" text-anchor="middle" dominant-baseline="middle" font-size="12" fill="#000000">2</text></svg>
