
> dungeons-on-automatic@0.1.0 doa /home/knorton/DungeonsOnAutomatic/DungeonsOnAutomatic
> tsx src/cli/index.ts generate --rooms=4 --system=dfrpg --room-shape=diverse --layout-type=rectangle --svg

calculateConnectionPoints: room1=room-2 [50,57] × [33,38]
calculateConnectionPoints: room2=room-3 [61,66] × [39,44]
calculateConnectionPoints: center1=(50, 33), center2=(61, 39)
calculateConnectionPoints: dx=11, dy=6
  horizontal right->left: startDoor=(52, 35), endDoor=(58, 38)
calculateConnectionPoints: room1=room-0 [34,39] × [32,36]
calculateConnectionPoints: room2=room-2 [50,57] × [33,38]
calculateConnectionPoints: center1=(34, 32), center2=(50, 33)
calculateConnectionPoints: dx=16, dy=1
  horizontal right->left: startDoor=(37, 32), endDoor=(47, 33)
calculateConnectionPoints: room1=room-0 [34,39] × [32,36]
calculateConnectionPoints: room2=room-1 [9,13] × [24,30]
calculateConnectionPoints: center1=(34, 32), center2=(9, 24)
calculateConnectionPoints: dx=-25, dy=-8
DFRPG: Generated 6 wandering monster entries
DFRPG: Generated dungeon "Keep" with mana: normal, sanctity: neutral, nature: weak
DFRPG: Generated 3 locks for doors
DFRPG: Created 3 keys
DFRPG: Placed keys in rooms
DFRPG: Dungeon is solvable with key placement
<svg xmlns="http://www.w3.org/2000/svg" width="1300" height="860" viewBox="0 0 1300 860"><rect x="0" y="0" width="1300" height="860" fill="#ffffff"/><rect x="1040" y="700" width="20" height="20" fill="#cccccc" stroke="none"/><rect x="1040" y="720" width="20" height="20" fill="#cccccc" stroke="none"/><rect x="1040" y="740" width="20" height="20" fill="#cccccc" stroke="none"/><rect x="1040" y="760" width="20" height="20" fill="#cccccc" stroke="none"/><rect x="1060" y="760" width="20" height="20" fill="#cccccc" stroke="none"/><rect x="1080" y="760" width="20" height="20" fill="#cccccc" stroke="none"/><rect x="1100" y="760" width="20" height="20" fill="#cccccc" stroke="none"/><rect x="1120" y="760" width="20" height="20" fill="#cccccc" stroke="none"/><rect x="1140" y="760" width="20" height="20" fill="#cccccc" stroke="none"/><rect x="1160" y="760" width="20" height="20" fill="#cccccc" stroke="none"/><line x1="1047.1554175279994" y1="703.5777087639997" x2="1032.8445824720006" y2="696.4222912360003" stroke="#000000" stroke-width="4"/><line x1="1152" y1="760" x2="1168" y2="760" stroke="#000000" stroke-width="4"/><rect x="740" y="640" width="20" height="20" fill="#cccccc" stroke="none"/><rect x="760" y="640" width="20" height="20" fill="#cccccc" stroke="none"/><rect x="780" y="640" width="20" height="20" fill="#cccccc" stroke="none"/><rect x="800" y="640" width="20" height="20" fill="#cccccc" stroke="none"/><rect x="820" y="640" width="20" height="20" fill="#cccccc" stroke="none"/><rect x="840" y="640" width="20" height="20" fill="#cccccc" stroke="none"/><rect x="860" y="640" width="20" height="20" fill="#cccccc" stroke="none"/><rect x="880" y="640" width="20" height="20" fill="#cccccc" stroke="none"/><rect x="900" y="640" width="20" height="20" fill="#cccccc" stroke="none"/><rect x="920" y="640" width="20" height="20" fill="#cccccc" stroke="none"/><rect x="940" y="640" width="20" height="20" fill="#cccccc" stroke="none"/><rect x="940" y="660" width="20" height="20" fill="#cccccc" stroke="none"/><line x1="745.6568542494924" y1="645.6568542494924" x2="734.3431457505076" y2="634.3431457505076" stroke="#000000" stroke-width="4"/><line x1="932.8445824720006" y1="663.5777087639997" x2="947.1554175279994" y2="656.4222912360003" stroke="#000000" stroke-width="4"/><rect x="620" y="640" width="20" height="20" fill="#cccccc" stroke="none"/><rect x="600" y="640" width="20" height="20" fill="#cccccc" stroke="none"/><rect x="580" y="640" width="20" height="20" fill="#cccccc" stroke="none"/><rect x="560" y="640" width="20" height="20" fill="#cccccc" stroke="none"/><rect x="540" y="640" width="20" height="20" fill="#cccccc" stroke="none"/><rect x="520" y="640" width="20" height="20" fill="#cccccc" stroke="none"/><rect x="500" y="640" width="20" height="20" fill="#cccccc" stroke="none"/><rect x="480" y="640" width="20" height="20" fill="#cccccc" stroke="none"/><rect x="460" y="640" width="20" height="20" fill="#cccccc" stroke="none"/><rect x="440" y="640" width="20" height="20" fill="#cccccc" stroke="none"/><rect x="420" y="640" width="20" height="20" fill="#cccccc" stroke="none"/><rect x="400" y="640" width="20" height="20" fill="#cccccc" stroke="none"/><rect x="380" y="640" width="20" height="20" fill="#cccccc" stroke="none"/><rect x="360" y="640" width="20" height="20" fill="#cccccc" stroke="none"/><rect x="340" y="640" width="20" height="20" fill="#cccccc" stroke="none"/><rect x="320" y="640" width="20" height="20" fill="#cccccc" stroke="none"/><rect x="300" y="640" width="20" height="20" fill="#cccccc" stroke="none"/><rect x="280" y="640" width="20" height="20" fill="#cccccc" stroke="none"/><rect x="260" y="640" width="20" height="20" fill="#cccccc" stroke="none"/><rect x="240" y="640" width="20" height="20" fill="#cccccc" stroke="none"/><rect x="240" y="620" width="20" height="20" fill="#cccccc" stroke="none"/><rect x="240" y="600" width="20" height="20" fill="#cccccc" stroke="none"/><rect x="240" y="580" width="20" height="20" fill="#cccccc" stroke="none"/><rect x="240" y="560" width="20" height="20" fill="#cccccc" stroke="none"/><line x1="614.3431457505076" y1="645.6568542494924" x2="625.6568542494924" y2="634.3431457505076" stroke="#000000" stroke-width="4"/><line x1="240" y1="552" x2="240" y2="568" stroke="#000000" stroke-width="4"/><polygon points="740,640 720,660 720,680 700,680 680,680 660,700 660,680 640,660 620,640 620,640 640,620 640,600 660,600 680,580 700,600 720,600 740,620" fill="#ffffff" stroke="#000000"/><text x="680" y="640" text-anchor="middle" dominant-baseline="middle" font-size="12" fill="#000000">1</text><polygon points="168.51056194165722,410 230,410 230,550 130,550 130,463.9147867183201 168.51056194165722,463.9147867183201" fill="#ffffff" stroke="#000000"/><text x="180" y="480" text-anchor="middle" dominant-baseline="middle" font-size="12" fill="#000000">2</text><polygon points="1060,660 1040,700 1000,720 960,700 940,660 960,620 1000,600 1040,620" fill="#ffffff" stroke="#000000"/><text x="1000" y="660" text-anchor="middle" dominant-baseline="middle" font-size="12" fill="#000000">3</text><polygon points="1280,780 1280,800 1260,820 1260,820 1240,840 1220,840 1200,840 1200,820 1180,820 1160,800 1160,780 1160,780 1160,760 1180,740 1200,720 1200,720 1220,720 1240,720 1260,740 1260,740 1280,760" fill="#ffffff" stroke="#000000"/><text x="1220" y="780" text-anchor="middle" dominant-baseline="middle" font-size="12" fill="#000000">4</text></svg>
