
> dungeons-on-automatic@0.1.0 doa /home/knorton/DungeonsOnAutomatic/DungeonsOnAutomatic
> tsx src/cli/index.ts generate --rooms=6 --system=dfrpg --room-shape=diverse --layout-type=rectangle --svg

DFRPG: Generated 6 wandering monster entries
DFRPG: Generated dungeon "Keep" with mana: low, sanctity: neutral, nature: strong
DFRPG: Generated 5 locks for doors
DFRPG: Created 5 keys
DFRPG: Placed keys in rooms
DFRPG: Successfully fixed dungeon solvability with key relocation
<svg xmlns="http://www.w3.org/2000/svg" width="880" height="980" viewBox="0 0 880 980"><rect x="0" y="0" width="880" height="980" fill="#ffffff"/><rect x="780" y="360" width="20" height="20" fill="#cccccc" stroke="none"/><line x1="780" y1="380" x2="800" y2="380" stroke="#000000" stroke-width="4"/><line x1="780" y1="348" x2="780" y2="332" stroke="#000000" stroke-width="4"/><rect x="640" y="340" width="20" height="20" fill="#cccccc" stroke="none"/><rect x="640" y="360" width="20" height="20" fill="#cccccc" stroke="none"/><rect x="640" y="380" width="20" height="20" fill="#cccccc" stroke="none"/><rect x="660" y="380" width="20" height="20" fill="#cccccc" stroke="none"/><rect x="680" y="380" width="20" height="20" fill="#cccccc" stroke="none"/><line x1="627.1554175279994" y1="343.5777087639997" x2="612.8445824720006" y2="336.4222912360003" stroke="#000000" stroke-width="4"/><line x1="700" y1="380" x2="700" y2="400" stroke="#000000" stroke-width="4"/><rect x="500" y="320" width="20" height="20" fill="#cccccc" stroke="none"/><rect x="500" y="340" width="20" height="20" fill="#cccccc" stroke="none"/><rect x="500" y="360" width="20" height="20" fill="#cccccc" stroke="none"/><rect x="500" y="380" width="20" height="20" fill="#cccccc" stroke="none"/><rect x="500" y="400" width="20" height="20" fill="#cccccc" stroke="none"/><rect x="480" y="400" width="20" height="20" fill="#cccccc" stroke="none"/><rect x="460" y="400" width="20" height="20" fill="#cccccc" stroke="none"/><rect x="440" y="400" width="20" height="20" fill="#cccccc" stroke="none"/><rect x="420" y="400" width="20" height="20" fill="#cccccc" stroke="none"/><line x1="512.8445824720006" y1="323.5777087639997" x2="527.1554175279994" y2="316.4222912360003" stroke="#000000" stroke-width="4"/><line x1="400" y1="392" x2="400" y2="408" stroke="#000000" stroke-width="4"/><rect x="760" y="780" width="20" height="20" fill="#cccccc" stroke="none"/><rect x="760" y="760" width="20" height="20" fill="#cccccc" stroke="none"/><rect x="760" y="740" width="20" height="20" fill="#cccccc" stroke="none"/><rect x="760" y="720" width="20" height="20" fill="#cccccc" stroke="none"/><rect x="760" y="700" width="20" height="20" fill="#cccccc" stroke="none"/><rect x="760" y="680" width="20" height="20" fill="#cccccc" stroke="none"/><rect x="760" y="660" width="20" height="20" fill="#cccccc" stroke="none"/><rect x="760" y="640" width="20" height="20" fill="#cccccc" stroke="none"/><rect x="760" y="620" width="20" height="20" fill="#cccccc" stroke="none"/><rect x="760" y="600" width="20" height="20" fill="#cccccc" stroke="none"/><rect x="760" y="580" width="20" height="20" fill="#cccccc" stroke="none"/><rect x="760" y="560" width="20" height="20" fill="#cccccc" stroke="none"/><rect x="740" y="560" width="20" height="20" fill="#cccccc" stroke="none"/><line x1="760" y1="792" x2="760" y2="808" stroke="#000000" stroke-width="4"/><line x1="740" y1="540" x2="760" y2="540" stroke="#000000" stroke-width="4"/><rect x="680" y="880" width="20" height="20" fill="#cccccc" stroke="none"/><rect x="680" y="860" width="20" height="20" fill="#cccccc" stroke="none"/><rect x="660" y="860" width="20" height="20" fill="#cccccc" stroke="none"/><rect x="640" y="860" width="20" height="20" fill="#cccccc" stroke="none"/><rect x="620" y="860" width="20" height="20" fill="#cccccc" stroke="none"/><rect x="600" y="860" width="20" height="20" fill="#cccccc" stroke="none"/><rect x="580" y="860" width="20" height="20" fill="#cccccc" stroke="none"/><rect x="560" y="860" width="20" height="20" fill="#cccccc" stroke="none"/><rect x="540" y="860" width="20" height="20" fill="#cccccc" stroke="none"/><rect x="520" y="860" width="20" height="20" fill="#cccccc" stroke="none"/><rect x="500" y="860" width="20" height="20" fill="#cccccc" stroke="none"/><rect x="480" y="860" width="20" height="20" fill="#cccccc" stroke="none"/><rect x="460" y="860" width="20" height="20" fill="#cccccc" stroke="none"/><rect x="440" y="860" width="20" height="20" fill="#cccccc" stroke="none"/><rect x="420" y="860" width="20" height="20" fill="#cccccc" stroke="none"/><rect x="400" y="860" width="20" height="20" fill="#cccccc" stroke="none"/><rect x="380" y="860" width="20" height="20" fill="#cccccc" stroke="none"/><rect x="360" y="860" width="20" height="20" fill="#cccccc" stroke="none"/><rect x="340" y="860" width="20" height="20" fill="#cccccc" stroke="none"/><line x1="692" y1="880" x2="708" y2="880" stroke="#000000" stroke-width="4"/><line x1="320" y1="852" x2="320" y2="868" stroke="#000000" stroke-width="4"/><polygon points="640,300 620,340 540,340 520,300 540,260 620,260" fill="#ffffff" stroke="#000000"/><text x="580" y="300" text-anchor="middle" dominant-baseline="middle" font-size="12" fill="#000000">1</text><polygon points="690,800 750,800 750,832.7854504529387 790,832.7854504529387 790,887.2145495470613 750,887.2145495470613 750,920 690,920" fill="#ffffff" stroke="#000000"/><text x="740" y="860" text-anchor="middle" dominant-baseline="middle" font-size="12" fill="#000000">2</text><rect x="700" y="380" width="160" height="160" fill="#ffffff" stroke="#000000"/><text x="780" y="460" text-anchor="middle" dominant-baseline="middle" font-size="12" fill="#000000">3</text><polygon points="296,370 344,370 344,405 400,405 400,435 344,435 344,470 296,470 296,435 240,435 240,405 296,405" fill="#ffffff" stroke="#000000"/><text x="320" y="420" text-anchor="middle" dominant-baseline="middle" font-size="12" fill="#000000">4</text><polygon points="765.408736972604,190 830,190 830,330 730,330 730,239.57223176164553 765.408736972604,239.57223176164553" fill="#ffffff" stroke="#000000"/><text x="780" y="260" text-anchor="middle" dominant-baseline="middle" font-size="12" fill="#000000">5</text><polygon points="219,810 261,810 261,859 310,859 310,901 261,901 261,950 219,950 219,901 170,901 170,859 219,859" fill="#ffffff" stroke="#000000"/><text x="240" y="880" text-anchor="middle" dominant-baseline="middle" font-size="12" fill="#000000">6</text></svg>
